<svg xmlns="http://www.w3.org/2000/svg" viewBox="0 0 32 32" fill="none" role="img" aria-label="Katja Blau">
  <rect width="32" height="32" rx="8" fill="#0c1222"/>
  <path
    fill="url(#kb)"
    d="M9 8h6.2c3.4 0 5.6 1.7 5.6 4.4 0 1.7-.9 3.1-2.4 3.8 1.9.7 3.1 2.3 3.1 4.5 0 3.1-2.6 5.3-6.7 5.3H9V8Zm3.2 3v4.2h2.6c1.6 0 2.5-.8 2.5-2.1s-.9-2.1-2.5-2.1h-2.6Zm0 7.2v4.4h3c1.9 0 3-.9 3-2.3 0-1.5-1.1-2.1-3-2.1h-3Z"
  />
  <defs>
    <linearGradient id="kb" x1="9" y1="8" x2="23" y2="24" gradientUnits="userSpaceOnUse">
      <stop stop-color="#3b6eff"/>
      <stop offset="0.45" stop-color="#18e6d4"/>
      <stop offset="1" stop-color="#ff3eb8"/>
    </linearGradient>
  </defs>
</svg>
